<svg xmlns="http://www.w3.org/2000/svg" width="141.541" height="87.041" viewBox="0 0 141.541 87.041">
  <g id="bracket" transform="translate(0.924 790.913)">
    <path id="Path_104" data-name="Path 104" d="M528.975-789.717a5.14,5.14,0,0,0-2.42,1.444c-1.145,1.12-1.232,1.368-2.377,6.841-.534,2.607-1.69,8.156-2.562,12.336s-2.29,11.011-3.162,15.191-1.952,9.362-2.4,11.528c-.752,3.62-2.072,9.955-5.19,24.941-.654,3.135-1.243,6.033-1.308,6.432a5.456,5.456,0,0,0,1.875,4.848,5.548,5.548,0,0,0,7.948-.883c.839-1.088.621-.248,3.042-11.883.654-3.178,1.745-8.382,2.4-11.549s1.744-8.36,2.4-11.528,1.745-8.36,2.4-11.528,1.745-8.36,2.4-11.528c1.614-7.725,3.565-17.162,3.762-18.121a5.237,5.237,0,0,0-1.461-5.107,5.016,5.016,0,0,0-2.486-1.444A6.721,6.721,0,0,0,528.975-789.717Z" transform="translate(-453.884 0)" fill="none" stroke="#323c54" stroke-width="2"/>
    <path id="Path_105" data-name="Path 105" d="M33.321-710.63a5.867,5.867,0,0,0-2.082.827c-.262.183-7.163,6.9-15.319,14.918C-.238-679,.623-679.913.23-678.291a5.157,5.157,0,0,0,0,2.513c.414,1.568-.447.655,15.58,16.475,9.747,9.623,15.057,14.789,15.493,15.058a4.891,4.891,0,0,0,3.249.816,4.93,4.93,0,0,0,3.009-1.02,5.432,5.432,0,0,0,2.017-5.724c-.458-1.525.065-.967-13.531-14.381l-12.68-12.512,12.593-12.4c6.934-6.82,12.746-12.62,12.92-12.877a5.745,5.745,0,0,0,.774-4.081A5.571,5.571,0,0,0,33.321-710.63Z" transform="translate(0 -70.539)" fill="none" stroke="#323c54" stroke-width="2"/>
    <path id="Path_106" data-name="Path 106" d="M920.17-710.545a5.608,5.608,0,0,0-4.2,4.156,5.744,5.744,0,0,0,.774,4.081c.175.258,5.986,6.057,12.92,12.877l12.593,12.4-12.68,12.512c-13.6,13.414-13.073,12.856-13.531,14.381a5.432,5.432,0,0,0,2.017,5.724,4.93,4.93,0,0,0,3.009,1.02,4.891,4.891,0,0,0,3.249-.816c.436-.268,5.746-5.435,15.493-15.058,16.027-15.82,15.166-14.907,15.58-16.475a5.157,5.157,0,0,0,0-2.513c-.393-1.622.469-.709-15.689-16.594-8.156-8.023-15.079-14.757-15.384-14.95A5.8,5.8,0,0,0,920.17-710.545Z" transform="translate(-815.936 -70.581)" fill="none" stroke="#323c54" stroke-width="2"/>
  </g>
</svg>
