<svg id="call_back" xmlns="http://www.w3.org/2000/svg" width="25" height="25" viewBox="0 0 25 25">
  <path id="Path_5" data-name="Path 5" d="M0,0H25V25H0Z" fill="none"/>
  <path id="Path_6" data-name="Path 6" d="M19.241,14.82a10.926,10.926,0,0,1-3.37-.535.933.933,0,0,0-.964.229l-1.5,1.881A14.5,14.5,0,0,1,6.829,9.875L8.691,8.29a.974.974,0,0,0,.229-.974,10.648,10.648,0,0,1-.535-3.37A.954.954,0,0,0,7.44,3h-3.3C3.621,3,3,3.229,3,3.945A16.377,16.377,0,0,0,19.241,20.186a1,1,0,0,0,.945-1.127V15.766a.954.954,0,0,0-.945-.945Z" transform="translate(0.907 0.907)" fill="#323c54"/>
</svg>
