<svg xmlns="http://www.w3.org/2000/svg" width="25.632" height="25" viewBox="0 0 25.632 25">
  <path id="github" d="M12.816,0A12.817,12.817,0,0,0,8.765,24.977c.64.119.847-.279.847-.616V21.975C6.047,22.751,5.3,20.463,5.3,20.463a3.394,3.394,0,0,0-1.424-1.875c-1.163-.8.089-.779.089-.779A2.69,2.69,0,0,1,5.934,19.13a2.728,2.728,0,0,0,3.729,1.065,2.719,2.719,0,0,1,.814-1.713c-2.846-.326-5.839-1.425-5.839-6.334a4.96,4.96,0,0,1,1.32-3.44,4.61,4.61,0,0,1,.125-3.392S7.16,4.972,9.609,6.629a12.148,12.148,0,0,1,6.418,0c2.447-1.658,3.521-1.314,3.521-1.314a4.605,4.605,0,0,1,.126,3.392,4.947,4.947,0,0,1,1.319,3.44c0,4.922-3,6.006-5.852,6.324a3.063,3.063,0,0,1,.879,2.373v3.517c0,.341.205.741.855.615A12.818,12.818,0,0,0,12.816,0Z" fill="#323c54"/>
</svg>
