<svg xmlns="http://www.w3.org/2000/svg" width="80.452" height="86.986" viewBox="0 0 80.452 86.986">
  <g id="UI" transform="translate(1.071 0.981)">
    <g id="Brush" transform="translate(0 0)">
      <g id="Group_184" data-name="Group 184">
        <path id="Path_101" data-name="Path 101" d="M6869.274,2303.239c-3.717,4.14-8.525,9.093-10.69,14.391a1.644,1.644,0,0,0-.109,1.34c2.793,5.368,44.392-33.591,48.808-37.637,9.3-8.518,17.955-15.057,26.014-24.833,1.548-1.877,3.131-3.9,3.521-6.353.23-1.523-6.874,1.641-8.252,2.341-10.548,5.363-22.934,14.768-31.549,22.739C6887.4,2284.127,6878.064,2293.449,6869.274,2303.239Z" transform="translate(-6858.447 -2234.477)" fill="none" stroke="#323c54" stroke-width="2"/>
        <g id="Group_183" data-name="Group 183" transform="translate(45.563)">
          <path id="Path_102" data-name="Path 102" d="M7175.45,2119.447a21.852,21.852,0,0,0-1.483-5.757c-1.807-4.342-5.093-8.483-9.932-9.426,7.847,4.944.329,14.573-5.321,18.475a23.572,23.572,0,0,1-4.585,2.467c-4.233,1.711-9.848,3.037-10.926,8.2C7157.054,2133.776,7167.383,2128.082,7175.45,2119.447Z" transform="translate(-7142.894 -2104.264)" fill="none" stroke="#323c54" stroke-width="2"/>
          <path id="Path_103" data-name="Path 103" d="M7142.051,2190.208c-.01.047-.026.089-.035.137-1.572,8.28,3.771,16.605,12.9,15.086,12.708-2.116,20.9-16.706,19.386-29.184C7166.232,2184.882,7155.9,2190.575,7142.051,2190.208Z" transform="translate(-7141.744 -2161.064)" fill="none" stroke="#323c54" stroke-width="2"/>
        </g>
      </g>
    </g>
  </g>
</svg>
