<svg xmlns="http://www.w3.org/2000/svg" width="35.704" height="25" viewBox="0 0 35.704 25">
  <path id="Path_31" data-name="Path 31" d="M523.95,3468.915a4.463,4.463,0,0,0-3.161-3.161c-2.766-.754-13.937-.754-13.937-.754s-11.171,0-13.973.754a4.524,4.524,0,0,0-3.161,3.161,51.655,51.655,0,0,0,0,17.17,4.526,4.526,0,0,0,3.161,3.161c2.8.754,13.973.754,13.973.754s11.171,0,13.937-.718a4.464,4.464,0,0,0,3.161-3.161,31.571,31.571,0,0,0,.684-5.841c.07-1.39.07-2.744.07-2.744S524.7,3471.717,523.95,3468.915ZM503.3,3482.852l9.267-5.352-9.267-5.352Z" transform="translate(-489 -3465)" fill="red" fill-rule="evenodd"/>
</svg>
